HIERARCHY
ROOT Hips
{
 OFFSET 0.000000 0.000000 0.000000
 CHANNELS 6 Xposition Yposition Zposition Yrotation Xrotation Zrotation
 JOINT Chest
 {
  OFFSET 0.000000 9.585900 0.002600
  CHANNELS 3 Yrotation Xrotation Zrotation
  JOINT Chest2
  {
   OFFSET 0.000000 9.601200 -0.005300
   CHANNELS 3 Yrotation Xrotation Zrotation
   JOINT Chest3
   {
    OFFSET 0.000000 9.561800 0.000000
    CHANNELS 3 Yrotation Xrotation Zrotation
    JOINT Chest4
    {
     OFFSET 0.000000 9.552100 0.000000
     CHANNELS 3 Yrotation Xrotation Zrotation
     JOINT Neck
     {
      OFFSET 0.000000 14.453000 0.000000
      CHANNELS 3 Yrotation Xrotation Zrotation
      JOINT Head
      {
       OFFSET 0.000000 8.936500 -0.011300
       CHANNELS 3 Yrotation Xrotation Zrotation
       End Site
       {
        OFFSET 0.000000 17.073600 -0.006000
       }
      }
     }
     JOINT RightCollar
     {
      OFFSET -2.921100 9.558500 0.000000
      CHANNELS 3 Yrotation Xrotation Zrotation
      JOINT RightShoulder
      {
       OFFSET -13.519700 0.000000 0.000000
       CHANNELS 3 Yrotation Xrotation Zrotation
       JOINT RightElbow
       {
        OFFSET 0.000000 -29.696600 0.000000
        CHANNELS 3 Yrotation Xrotation Zrotation
        JOINT RightWrist
        {
         OFFSET 0.000000 -24.004700 0.000000
         CHANNELS 3 Yrotation Xrotation Zrotation
         End Site
         {
          OFFSET 0.000000 -17.728500 0.000000
         }
        }
       }
      }
     }
     JOINT LeftCollar
     {
      OFFSET 2.921100 9.558500 0.000000
      CHANNELS 3 Yrotation Xrotation Zrotation
      JOINT LeftShoulder
      {
       OFFSET 13.519700 0.000000 0.000000
       CHANNELS 3 Yrotation Xrotation Zrotation
       JOINT LeftElbow
       {
        OFFSET 0.000000 -29.696600 0.000000
        CHANNELS 3 Yrotation Xrotation Zrotation
        JOINT LeftWrist
        {
         OFFSET 0.000000 -24.004700 0.000000
         CHANNELS 3 Yrotation Xrotation Zrotation
         End Site
         {
          OFFSET 0.000000 -17.728500 0.000000
         }
        }
       }
      }
     }
    }
   }
  }
 }
 JOINT RightHip
 {
  OFFSET -7.771700 -0.012900 -0.001300
  CHANNELS 3 Yrotation Xrotation Zrotation
  JOINT RightKnee
  {
   OFFSET 0.000000 -40.869800 0.001200
   CHANNELS 3 Yrotation Xrotation Zrotation
   JOINT RightAnkle
   {
    OFFSET 0.000000 -39.717900 0.002100
    CHANNELS 3 Yrotation Xrotation Zrotation
    JOINT RightToe
    {
     OFFSET 0.000000 -4.965400 11.033500
     CHANNELS 3 Yrotation Xrotation Zrotation
     End Site
     {
      OFFSET 0.000000 -1.423100 5.872300
     }
    }
   }
  }
 }
 JOINT LeftHip
 {
  OFFSET 7.771700 -0.012900 -0.001300
  CHANNELS 3 Yrotation Xrotation Zrotation
  JOINT LeftKnee
  {
   OFFSET 0.000000 -40.869800 0.001200
   CHANNELS 3 Yrotation Xrotation Zrotation
   JOINT LeftAnkle
   {
    OFFSET 0.000000 -39.717900 0.002100
    CHANNELS 3 Yrotation Xrotation Zrotation
    JOINT LeftToe
    {
     OFFSET 0.000000 -4.965400 11.033500
     CHANNELS 3 Yrotation Xrotation Zrotation
     End Site
     {
      OFFSET 0.000000 -1.423100 5.872300
     }
    }
   }
  }
 }
}
MOTION
Frames: 8
Frame Time: 0.008333
1.222494 48.291416 27.676168 176.535655 -35.202275 -7.188921 4.859615 18.788426 5.321402 0.506265 2.352541 0.583315 0.826621 3.869120 0.978288 4.046030 16.271126 4.640013 -1.854217 16.591329 2.233442 -4.212000 -4.866813 4.777855 -1.908410 -1.076101 -3.676440 5.732895 -7.381398 1.820937 68.309998 -83.789577 -76.685580 -0.742362 -4.071441 0.927584 -9.198290 -0.892746 -0.491222 -0.509083 -3.732054 -1.734031 -121.515098 -75.558087 117.145794 15.630857 -8.020388 10.857311 5.767521 -51.061601 6.693473 -103.523897 80.751355 -91.282679 -1.764422 -9.658023 -2.443481 0.008020 -0.836363 0.532596 -9.243553 -49.313066 12.255042 -166.053359 77.689936 -172.200769 3.887007 -18.400228 5.579485 0.004314 0.015979 0.011101
1.214651 48.293969 27.684763 176.519746 -35.204252 -7.177152 4.858493 18.795821 5.319079 0.497861 2.359072 0.589695 0.830799 3.870598 0.979696 4.062585 16.265967 4.636076 -1.859123 16.586803 2.230972 -4.209854 -4.861026 4.799919 -1.905290 -1.092217 -3.692991 5.702303 -7.350485 1.865025 68.560832 -83.855140 -76.939736 -0.775192 -4.117412 0.993244 -9.199685 -0.905046 -0.498972 -0.513418 -3.717785 -1.725697 -121.598205 -75.572790 117.228976 15.627913 -8.042494 10.873117 5.622153 -50.847262 6.760800 -105.792408 80.613795 -93.541395 -1.825815 -9.985557 -2.567752 0.018193 -0.929084 0.516731 -9.219986 -49.307055 12.246482 -166.036220 77.708690 -172.189848 3.880697 -18.393360 5.586923 0.005933 0.018645 0.013070
1.208827 48.298488 27.695043 176.465915 -35.212681 -7.159718 4.892349 18.804211 5.331679 0.506571 2.357136 0.589044 0.827957 3.875527 0.983122 4.077284 16.266681 4.642656 -1.856129 16.584820 2.242627 -4.209013 -4.873744 4.818179 -1.912043 -1.107547 -3.708254 5.670370 -7.320964 1.904674 68.811713 -83.937901 -77.187169 -0.813813 -4.161550 1.064285 -9.195753 -0.929556 -0.508083 -0.523881 -3.700518 -1.723583 -121.682520 -75.559362 117.317304 15.636124 -8.043181 10.875725 5.518921 -50.615495 6.839287 -107.848593 80.478978 -95.572759 -1.896856 -10.289694 -2.693450 0.025604 -1.014236 0.508611 -9.184009 -49.291263 12.260692 -166.023297 77.728034 -172.182465 3.886209 -18.392452 5.587717 0.006782 0.023102 0.016758
1.202341 48.304361 27.706961 176.437547 -35.218128 -7.157440 4.905123 18.811594 5.342439 0.514128 2.355814 0.590101 0.826835 3.880629 0.985608 4.093568 16.267898 4.651129 -1.862518 16.577080 2.237608 -4.209252 -4.882349 4.821780 -1.929035 -1.111286 -3.715193 5.637474 -7.304816 1.931323 69.091737 -84.016819 -77.451283 -0.845957 -4.193625 1.132472 -9.196465 -0.949935 -0.514920 -0.515972 -3.674445 -1.700032 -121.814826 -75.568218 117.439301 15.533073 -8.097446 10.825145 5.420125 -50.369322 6.902807 -109.746412 80.365478 -97.434654 -1.979050 -10.555399 -2.816336 0.029323 -1.106666 0.502639 -9.165275 -49.278177 12.279147 -165.925722 77.747144 -172.087823 3.874806 -18.386030 5.598576 0.046441 0.029823 0.019956
1.195599 48.311874 27.719940 176.409323 -35.227003 -7.158476 4.919152 18.821822 5.355386 0.519376 2.357541 0.593258 0.828250 3.883433 0.985994 4.110479 16.269906 4.659833 -1.855676 16.569294 2.248531 -4.223726 -4.890220 4.807941 -1.949602 -1.115166 -3.719132 5.626915 -7.301504 1.939166 69.266750 -84.074077 -77.625539 -0.860508 -4.208897 1.186949 -9.188672 -0.964112 -0.525198 -0.465737 -3.653110 -1.634534 -122.001427 -75.501382 117.591164 15.521696 -8.073175 10.732276 5.326439 -50.108368 6.969040 -111.517859 80.279613 -99.166505 -2.078821 -10.781949 -2.936121 0.032690 -1.204060 0.495547 -9.148240 -49.260270 12.295812 -165.897549 77.771357 -172.058535 3.861882 -18.380385 5.603780 0.019428 0.034620 0.020878
1.187508 48.320644 27.733773 176.391440 -35.237603 -7.162394 4.922980 18.835036 5.365755 0.512151 2.364203 0.593628 0.847573 3.877383 0.985877 4.118981 16.271187 4.663892 -1.855360 16.565576 2.252061 -4.227790 -4.910699 4.807434 -1.970988 -1.112796 -3.714454 5.620445 -7.298723 1.943042 69.496971 -84.085038 -77.854696 -0.870465 -4.211076 1.224866 -9.176046 -0.966755 -0.521724 -0.460517 -3.654042 -1.623758 -121.994017 -75.421490 117.589150 15.508657 -8.023078 10.630575 5.228181 -49.832775 7.033989 -113.174178 80.212324 -100.781010 -2.195359 -10.977712 -3.057942 0.041250 -1.299299 0.490050 -9.108743 -49.243854 12.273726 -165.962138 77.802538 -172.100858 3.874668 -18.375035 5.596072 0.000148 0.036413 0.019645
1.174117 48.330159 27.747517 176.396279 -35.250178 -7.152257 4.896934 18.853701 5.349222 0.528205 2.363054 0.591734 0.846578 3.880586 0.987214 4.126169 16.272899 4.666956 -1.857289 16.563002 2.257191 -4.219770 -4.944162 4.805096 -1.988630 -1.112614 -3.710496 5.587043 -7.286311 1.953303 69.870372 -84.051054 -78.204901 -0.851214 -4.195276 1.239478 -9.140884 -0.959062 -0.504340 -0.473323 -3.667096 -1.624809 -122.005832 -75.370000 117.594184 15.485087 -7.960784 10.534163 5.161317 -49.541131 7.045950 -114.723247 80.152746 -102.274481 -2.334258 -11.123212 -3.190349 0.072752 -1.413720 0.497432 -9.063335 -49.225811 12.214849 -166.050667 77.842220 -172.175130 3.863778 -18.358536 5.595254 0.038180 0.041258 0.024376
1.164271 48.340910 27.762334 176.376809 -35.268055 -7.154090 4.909088 18.870028 5.362671 0.518657 2.368508 0.592192 0.848697 3.884952 0.988301 4.133226 16.279792 4.669592 -1.847245 16.552423 2.256625 -4.215691 -4.961534 4.797501 -1.983537 -1.126283 -3.718568 5.548801 -7.268635 1.967863 70.252686 -83.986754 -78.573499 -0.799761 -4.166293 1.238864 -9.121852 -0.972258 -0.505215 -0.387876 -3.657085 -1.554308 -122.271213 -75.392108 117.781001 15.463205 -7.896026 10.460469 5.118012 -49.243394 7.071443 -116.172335 80.101599 -103.646264 -2.440905 -11.278062 -3.322803 0.085163 -1.484706 0.498515 -9.021283 -49.202355 12.194093 -166.151574 77.876435 -172.254216 3.845473 -18.341082 5.595575 -0.012366 0.036900 0.022534
